PathFileType	4	(X/Y/Z)	s01c0201.trc
DataRate	CameraRate	NumFrames	NumMarkers	Units	OrigDataRate	OrigDataStartFrame	OrigNumFrames
200	200	4	48	mm	200	750	2000
Frame#	Time	racr			lacr			c7			jug			rlel			rdr			llel			ldr			s2			lic			ric			lasi			rasi			rpsi			lpsi			rgt			lgt			rth1			rth2			rth3			rth4			rlfc			rsh1			rsh2			rsh3			rsh4			rlmal			rmmal			rcal			rtoe			rmt5			lth1			lth2			lth4			lth3			llfc			lsh1			lsh2			lsh3			lsh4			llmal			lmmal			lcal			ltoe			lmt5			SBIKE			LBIKE			RBIKE			
		X1	Y1	Z1	X2	Y2	Z2	X3	Y3	Z3	X4	Y4	Z4	X5	Y5	Z5	X6	Y6	Z6	X7	Y7	Z7	X8	Y8	Z8	X9	Y9	Z9	X10	Y10	Z10	X11	Y11	Z11	X12	Y12	Z12	X13	Y13	Z13	X14	Y14	Z14	X15	Y15	Z15	X16	Y16	Z16	X17	Y17	Z17	X18	Y18	Z18	X19	Y19	Z19	X20	Y20	Z20	X21	Y21	Z21	X22	Y22	Z22	X23	Y23	Z23	X24	Y24	Z24	X25	Y25	Z25	X26	Y26	Z26	X27	Y27	Z27	X28	Y28	Z28	X29	Y29	Z29	X30	Y30	Z30	X31	Y31	Z31	X32	Y32	Z32	X33	Y33	Z33	X34	Y34	Z34	X35	Y35	Z35	X36	Y36	Z36	X37	Y37	Z37	X38	Y38	Z38	X39	Y39	Z39	X40	Y40	Z40	X41	Y41	Z41	X42	Y42	Z42	X43	Y43	Z43	X44	Y44	Z44	X45	Y45	Z45	X46	Y46	Z46	X47	Y47	Z47	X48	Y48	Z48	
750	3.7500	501.435211	1257.226685	-53.967171	530.136169	1241.082886	-414.924957	490.909637	1359.802246	-237.818359	476.925354	1191.968262	-233.553986	463.709686	989.841736	56.881729	665.102112	882.728149	-46.846394	480.663177	994.279907	-563.970093	662.450562	887.538452	-442.714172	-34.483273	1145.872803	-265.963013	140.220688	1160.578125	-431.877075	103.370583	1160.904297	-98.974442	144.904739	1114.133423	-404.703064	139.742538	1116.572388	-123.391449	-9.788321	1187.378296	-214.851517	-7.704762	1190.052612	-319.107269	63.061943	1037.406738	-76.443466	100.570129	1038.103638	-455.936951	141.818375	925.350403	-53.070534	194.614120	861.476074	-56.330429	247.276260	788.534729	-65.405663	240.057236	894.360291	-64.996674	296.127441	683.267578	-82.780403	265.448883	569.643433	-51.694759	259.360443	485.116241	-57.858105	244.909851	398.150238	-70.046402	309.419922	481.534332	-91.926826	214.963715	277.842194	-93.731239	265.843506	293.219849	-165.721832	174.772171	257.926971	-146.913986	437.448914	195.345230	-129.246750	328.745209	177.447067	-61.674992	198.785843	970.654541	-451.422455	287.203217	958.532715	-453.652771	296.148865	1011.032837	-441.981293	369.219269	936.587341	-437.309540	456.821930	865.592102	-405.402710	363.956146	807.396423	-438.725647	299.481506	750.489990	-430.689392	233.325867	697.185120	-417.221039	336.560608	713.492004	-397.686005	137.217896	618.578735	-402.937866	164.112015	609.825378	-319.956879	78.514618	627.219666	-357.582367	260.177612	415.789093	-371.660675	171.587494	478.615143	-434.721832	-223.033890	893.802185	-249.767929	-12.087803	84.536583	-453.763763	-20.275429	80.743629	-53.760605	
751	3.7550	503.191498	1258.208984	-56.399086	529.234192	1242.678589	-417.474792	490.985321	1360.944580	-240.245728	477.496063	1193.211426	-236.218918	465.000763	991.507202	56.104900	665.355469	883.038696	-47.104473	479.493286	995.052368	-564.331970	662.018494	888.183533	-442.978821	-34.456749	1146.335571	-263.864777	139.014923	1162.482544	-431.309265	105.384659	1161.174561	-98.380379	144.373032	1115.467529	-404.109009	140.522827	1116.502563	-122.924133	-9.571369	1187.746460	-212.601547	-7.931998	1190.558472	-316.953644	63.042721	1036.868408	-75.456017	99.574799	1040.683594	-455.409576	138.956345	924.173767	-51.928139	190.374710	859.102539	-54.985218	241.556839	785.020996	-63.418991	236.835159	891.229248	-63.575123	289.147034	679.206299	-81.209679	257.974762	565.759155	-50.364285	251.804337	481.247406	-56.622593	237.293701	394.310516	-68.953682	302.068756	477.563416	-90.296806	207.778564	273.895935	-93.140144	258.210663	289.001892	-164.465576	167.702667	255.478989	-146.113388	429.163727	187.622025	-129.586746	320.298859	171.746567	-61.543060	198.793625	974.418030	-450.799255	287.384583	964.317749	-453.443634	295.345306	1016.897278	-441.611450	369.924347	944.210266	-437.530304	459.329254	876.089539	-406.058075	368.114624	817.615234	-439.237000	304.224396	759.394836	-430.410797	238.942139	705.222168	-417.244751	341.636108	723.010559	-398.085327	143.724976	624.350708	-402.666504	170.766006	616.337585	-319.617035	84.780838	632.150024	-357.251678	269.561249	423.283752	-370.993896	179.969208	484.811310	-434.301514	-223.067352	893.845520	-249.597198	-12.091253	84.579506	-453.761017	-20.275770	80.742767	-53.764812	
752	3.7600	504.915436	1259.302612	-58.887203	528.449158	1244.225220	-419.972290	491.120239	1361.976562	-242.657440	478.069885	1194.346924	-238.659515	466.335938	993.113586	55.076664	665.650452	883.380859	-47.519859	478.297363	995.648499	-564.601624	661.617310	888.890930	-443.195221	-34.463638	1146.936279	-261.687897	137.739334	1164.385742	-430.710968	107.327194	1161.508911	-98.039398	143.768555	1116.845459	-403.496338	141.326294	1116.588745	-122.454918	-9.562715	1188.397095	-210.160873	-8.162382	1191.215454	-314.735474	63.044456	1036.417847	-74.352867	98.608109	1043.159424	-454.840546	136.245758	923.263733	-50.850819	186.465515	857.205811	-53.501419	236.222412	782.260742	-62.015491	233.251587	888.493103	-61.941010	282.455688	675.876587	-79.531250	250.836838	562.410217	-49.033546	244.424789	477.906738	-55.448116	229.841782	391.037354	-67.886475	295.007782	474.126404	-88.739151	200.567566	271.189911	-92.609604	250.312790	285.475586	-163.164398	160.585449	253.748047	-145.467361	420.474457	180.348206	-129.893387	311.627502	166.597733	-61.449005	198.712372	978.203735	-450.148865	287.427917	969.954407	-453.199860	294.376373	1022.588379	-441.752991	371.087891	951.510193	-436.916534	461.812805	886.295044	-406.373016	371.944275	826.861938	-438.689758	308.762421	767.976624	-430.178436	244.316635	712.854492	-417.069244	346.827484	731.866211	-398.470764	150.194077	629.437500	-402.409332	177.503296	622.283875	-319.273682	91.238373	636.314392	-356.931091	279.422577	430.721985	-370.746277	188.904922	490.676208	-434.019592	-223.181137	893.940613	-249.578491	-12.089371	84.547531	-453.835999	-20.273741	80.762787	-53.746544	
753	3.7650	506.637787	1260.303589	-61.419624	527.717041	1245.645264	-422.375580	491.305023	1362.917480	-245.101501	478.627289	1195.307861	-241.295441	467.684875	994.707581	53.912815	665.900818	883.693115	-47.982288	476.998749	996.317261	-564.922119	661.216431	889.524780	-443.242279	-34.494759	1147.724731	-259.529236	136.458679	1166.343262	-430.090363	109.314751	1161.729736	-97.464821	143.096680	1118.253418	-402.865326	142.166122	1116.672974	-122.060684	-8.856296	1188.731812	-208.202011	-8.393298	1192.022705	-312.480652	63.109627	1036.341553	-73.362640	97.534172	1045.649536	-454.212982	133.727524	922.820618	-49.635513	182.683121	855.943542	-52.084286	231.194229	780.031799	-60.422302	229.423721	886.259460	-60.856308	276.082825	673.098145	-77.876617	243.824203	559.657837	-47.726551	237.248688	475.220520	-54.201958	222.497696	388.383759	-66.890984	288.141205	471.395630	-87.102180	193.340454	268.767395	-92.252769	242.250763	282.645844	-161.861954	153.309738	252.887634	-144.698395	411.556885	173.484009	-130.263641	302.615631	162.074005	-61.461811	198.495438	981.967468	-449.539154	287.338867	975.394531	-452.888092	293.311676	1028.356079	-441.793823	370.915222	958.857727	-437.703979	464.258881	896.554871	-406.587341	375.151428	836.281555	-438.484833	312.951538	776.375977	-430.019867	249.471466	720.084229	-416.969635	351.771606	740.367859	-398.988861	156.618179	633.797363	-402.174042	184.211945	627.357727	-319.045471	97.820328	639.670410	-356.634918	289.937805	437.910461	-370.684265	197.814713	495.974976	-433.803406	-223.279785	893.939209	-249.526291	-12.096051	84.596802	-453.803162	-20.291935	80.780563	-53.733475	
